<?xml version="1.0" standalone="no"?>
<!DOCTYPE svg PUBLIC "-//W3C//DTD SVG 20010904//EN"
 "http://www.w3.org/TR/2001/REC-SVG-20010904/DTD/svg10.dtd">
<svg version="1.0" xmlns="http://www.w3.org/2000/svg"
 width="1024.000000pt" height="1024.000000pt" viewBox="0 0 1024.000000 1024.000000"
 preserveAspectRatio="xMidYMid meet">

<g transform="translate(0.000000,1024.000000) scale(0.100000,-0.100000)"
fill="#000000" stroke="none">
<path d="M4955 8784 c-720 -28 -1287 -164 -1830 -439 -758 -385 -1330 -994
-1623 -1731 -275 -690 -275 -1471 0 -2154 111 -276 280 -563 474 -805 119
-149 370 -398 529 -525 498 -398 1094 -660 1750 -769 449 -75 900 -87 1341
-36 121 14 378 60 394 70 5 3 55 -34 112 -83 184 -153 516 -435 748 -632 124
-106 245 -201 270 -213 56 -26 158 -27 213 -3 57 25 121 94 140 151 23 66 21
107 -8 265 -14 74 -46 243 -71 375 -25 132 -59 307 -75 389 -16 82 -27 157
-24 167 3 10 32 32 63 50 285 160 678 501 905 784 429 535 661 1146 683 1800
15 425 -70 853 -253 1265 -188 427 -448 785 -792 1094 -573 515 -1248 813
-2131 940 -188 27 -608 48 -815 40z m605 -230 c861 -79 1572 -364 2136 -858
440 -385 727 -814 897 -1342 84 -261 123 -474 133 -739 27 -667 -207 -1328
-667 -1881 -107 -130 -327 -347 -454 -448 -99 -79 -328 -236 -449 -308 -54
-32 -86 -79 -86 -127 0 -19 20 -134 45 -255 61 -304 131 -663 150 -774 17
-100 11 -132 -28 -156 -28 -17 -60 7 -384 285 -480 412 -706 603 -738 626 -51
36 -88 36 -260 4 -302 -56 -415 -65 -815 -66 -294 0 -394 4 -515 18 -738 90
-1361 342 -1883 760 -599 481 -971 1095 -1093 1802 -80 465 -24 970 158 1435
154 392 373 722 682 1030 610 608 1429 950 2416 1009 188 11 552 4 755 -15z"/>
<path d="M4950 7610 c-392 -20 -752 -111 -1046 -264 l-101 -53 -72 78 c-169
183 -374 265 -568 225 -203 -41 -374 -191 -452 -395 -22 -58 -25 -82 -25 -201
-1 -121 2 -142 25 -207 51 -139 164 -275 286 -344 l51 -30 -23 -42 c-38 -68
-130 -302 -174 -442 -172 -554 -193 -1023 -61 -1426 144 -438 479 -798 919
-983 60 -25 118 -46 130 -46 12 0 38 15 59 34 33 30 37 40 37 81 0 57 -20 76
-127 119 -176 70 -307 156 -452 296 -252 242 -380 509 -427 890 -22 183 5 510
62 735 113 445 291 829 508 1095 309 380 696 580 1261 652 130 17 628 16 750
0 287 -40 508 -107 720 -218 195 -104 358 -239 502 -417 111 -139 165 -223
257 -406 296 -587 407 -1189 300 -1638 -67 -283 -188 -494 -397 -694 -141
-136 -298 -234 -514 -322 -51 -21 -74 -67 -59 -118 14 -45 63 -89 99 -89 35 0
196 73 315 144 519 305 817 831 817 1444 0 358 -112 813 -307 1250 -26 56 -44
103 -42 105 2 2 37 25 77 51 190 127 292 325 279 542 -21 350 -344 630 -673
584 -145 -20 -262 -84 -386 -212 l-77 -79 -90 46 c-290 145 -621 230 -976 250
-210 12 -254 12 -405 5z m-1540 -259 c70 -37 126 -80 170 -132 l40 -48 -133
-133 c-123 -122 -228 -251 -303 -370 -16 -27 -32 -48 -35 -48 -3 0 -32 17 -65
38 -103 67 -161 152 -184 270 -36 183 61 355 245 435 60 26 204 19 265 -12z
m3675 8 c305 -114 344 -524 67 -700 -25 -16 -51 -29 -57 -29 -7 0 -35 35 -63
78 -84 126 -175 233 -304 356 l-121 116 23 28 c66 76 140 131 211 156 65 22
177 20 244 -5z"/>
<path d="M4033 6114 c-131 -78 -130 -282 1 -359 34 -20 56 -25 108 -25 58 0
72 4 114 33 69 46 97 103 92 187 -7 123 -80 190 -204 190 -56 0 -77 -5 -111
-26z"/>
<path d="M6005 6124 c-78 -40 -115 -103 -115 -194 0 -69 13 -101 62 -147 42
-41 76 -53 144 -53 142 0 233 128 193 273 -13 47 -63 106 -106 123 -44 19
-141 18 -178 -2z"/>
<path d="M4748 5620 c-113 -35 -175 -140 -149 -254 17 -75 63 -138 217 -291
97 -98 142 -151 160 -188 27 -59 28 -67 13 -121 -23 -83 -139 -167 -267 -195
-76 -16 -121 -14 -228 11 -111 25 -136 19 -160 -39 -20 -46 -13 -98 17 -129
22 -24 128 -54 188 -54 l31 0 0 -304 c0 -167 3 -318 7 -336 4 -20 25 -52 52
-81 65 -66 85 -69 500 -69 396 0 425 4 489 68 58 58 62 83 62 421 l0 301 28 0
c66 1 147 28 176 61 25 28 28 37 23 82 -3 39 -11 56 -31 74 -33 28 -51 29
-163 2 -291 -70 -551 114 -451 319 12 27 82 108 169 198 175 181 215 246 207
338 -6 70 -42 126 -105 163 l-48 28 -355 2 c-195 1 -367 -2 -382 -7z m597
-1217 c50 -19 96 -36 103 -38 9 -3 12 -69 12 -285 l0 -280 -120 0 -120 0 0
326 c0 307 1 326 18 319 9 -5 58 -23 107 -42z m-335 -283 l0 -321 -112 3 -113
3 -3 278 c-2 259 -1 279 15 284 10 2 56 19 103 37 47 19 91 34 98 35 9 1 12
-69 12 -319z"/>
</g>
</svg>
