<svg xmlns="http://www.w3.org/2000/svg" xmlns:xlink="http://www.w3.org/1999/xlink" viewBox="0,0,256,256" width="480px" height="480px" fill-rule="nonzero"><g transform="translate(-56.32,-56.32) scale(1.44,1.44)"><g fill="#000000" fill-rule="nonzero" stroke="none" stroke-width="1" stroke-linecap="butt" stroke-linejoin="miter" stroke-miterlimit="10" stroke-dasharray="" stroke-dashoffset="0" font-family="none" font-weight="none" font-size="none" text-anchor="none" style="mix-blend-mode: normal"><g transform="translate(0,3.6256) scale(4,4)"><path d="M32,9c12.131,0 22,9.645 22,21.5c0,11.855 -9.869,21.5 -22,21.5c-2.528,0 -5.012,-0.423 -7.395,-1.258c0,0 -3.409,1.653 -3.886,1.896c-0.367,0.188 -1.493,0.593 -2.224,0.148c-0.663,-0.404 -0.904,-1.387 -0.904,-1.806c0,-0.419 0,-4.251 0,-4.251c-4.837,-4.096 -7.591,-9.956 -7.591,-16.229c0,-11.855 9.869,-21.5 22,-21.5zM44.185,27.013c0.439,-0.701 1.153,-1.543 1.153,-2.27c0,-0.607 -0.473,-0.911 -0.97,-0.911c-0.488,0 -1.044,0.426 -1.724,0.972c-0.681,0.547 -3.537,2.697 -4.315,3.286c-0.715,0.542 -1.752,1.325 -2.359,1.325c-0.607,0 -1.415,-0.539 -1.819,-0.876c-0.537,-0.448 -2.596,-1.984 -3.504,-2.651c-0.908,-0.667 -1.431,-1.149 -2.853,-1.149c-1.756,0 -2.565,1.645 -3.032,2.339c-0.424,0.629 -4.105,6.584 -4.8,7.614c-0.827,1.225 -1.394,1.978 -1.394,2.523c0,0.545 0.545,0.908 1.211,0.908c0.666,0 1.35,-0.7 2.164,-1.373c0.814,-0.673 3.7,-2.817 4.427,-3.423c0.727,-0.606 1.186,-0.903 1.648,-0.903c0.462,0 0.702,0.168 1.323,0.655c0.68,0.534 2.658,2.027 3.835,2.877c1.104,0.796 1.541,1.198 2.894,1.198c1.353,0 2.869,-1.626 3.417,-2.594c0.62,-1.09 4.26,-6.847 4.698,-7.547z"></path></g></g></g></svg>