<svg xmlns="http://www.w3.org/2000/svg" xmlns:xlink="http://www.w3.org/1999/xlink" viewBox="0,0,256,256" width="480px" height="480px" fill-rule="nonzero"><g transform="translate(-56.32,-56.32) scale(1.44,1.44)"><g fill="#1a1a1a" fill-rule="nonzero" stroke="none" stroke-width="1" stroke-linecap="butt" stroke-linejoin="miter" stroke-miterlimit="10" stroke-dasharray="" stroke-dashoffset="0" font-family="none" font-weight="none" font-size="none" text-anchor="none" style="mix-blend-mode: normal"><g transform="translate(0,3.62651) scale(4,4)"><path d="M32,9c-12.131,0 -22,9.645 -22,21.5c0,6.273 2.7548,12.13252 7.5918,16.22852v4.25195c0,0.419 0.23934,1.40069 0.90234,1.80469c0.731,0.445 1.85761,0.04152 2.22461,-0.14648c0.477,-0.243 3.88672,-1.89648 3.88672,-1.89648c2.383,0.835 4.86653,1.25781 7.39453,1.25781c12.131,0 22,-9.645 22,-21.5c0,-11.855 -9.869,-21.5 -22,-21.5zM32,13c9.925,0 18,7.851 18,17.5c0,9.649 -8.075,17.5 -18,17.5c-3.244,0 -6.13648,-1.03197 -6.77148,-1.29297c-0.635,-0.261 -1.23119,-0.12259 -1.61719,0.06641c-0.261,0.127 -1.09152,0.53511 -1.60352,0.78711c-0.245,0.121 -0.41016,-0.04162 -0.41016,-0.26562c0,-0.463 -0.00586,-1.14053 -0.00586,-1.51953c0,-0.562 -0.28834,-1.20403 -0.77734,-1.58203c-4.331,-3.349 -6.81445,-8.33936 -6.81445,-13.69336c0,-9.649 8.075,-17.5 18,-17.5zM44.36719,23.83203c-0.488,0 -1.04266,0.42666 -1.72266,0.97266c-0.681,0.547 -3.53841,2.69711 -4.31641,3.28711c-0.716,0.542 -1.75142,1.32422 -2.35742,1.32422c-0.606,0 -1.41631,-0.53995 -1.82031,-0.87695c-0.537,-0.448 -2.59591,-1.98439 -3.50391,-2.65039c-0.909,-0.667 -1.42956,-1.14844 -2.85156,-1.14844c-1.756,0 -2.5652,1.64389 -3.0332,2.33789c-0.424,0.63 -4.10383,6.58623 -4.79883,7.61523c-0.827,1.225 -1.39453,1.98039 -1.39453,2.52539c0,0.545 0.54494,0.9082 1.21094,0.9082c0.666,0 1.35006,-0.70005 2.16406,-1.37305c0.814,-0.673 3.70073,-2.81783 4.42773,-3.42383c0.726,-0.606 1.18644,-0.90234 1.64844,-0.90234c0.462,0 0.70127,0.1663 1.32227,0.6543c0.679,0.535 2.65894,2.02695 3.83594,2.87695c1.104,0.797 1.54058,1.19727 2.89258,1.19727c1.352,0 2.86997,-1.62675 3.41797,-2.59375c0.619,-1.092 4.25827,-6.84783 4.69727,-7.54883c0.439,-0.701 1.15234,-1.54253 1.15234,-2.26953c0,-0.607 -0.4737,-0.91211 -0.9707,-0.91211z"></path></g></g></g></svg>