<svg width="106" height="102" viewBox="0 0 106 102" fill="none" xmlns="http://www.w3.org/2000/svg">
<g clip-path="url(#clip0_5_32)">
<path d="M89.0894 36.0637C89.1157 39.1778 89.1339 42.2919 89.176 45.4058C89.1831 45.9247 89.2939 46.4421 89.4144 47.1818C89.8746 48.4466 90.2117 49.521 90.6901 50.5281C93.851 57.1819 95.605 64.1964 95.8865 71.5424C96.0895 76.8396 95.5292 82.0676 93.5574 87.0587C91.1506 93.1507 87.7746 98.36 81.202 100.671C80.9788 100.749 80.8373 101.061 80.6578 101.264C72.826 101.264 64.9942 101.264 57.0446 101.16C57.2488 100.866 57.5483 100.6 57.8961 100.495C66.1873 98.0046 71.1497 90.3957 71.0131 81.84C70.8431 71.1936 70.9672 60.5424 70.9857 49.8934C70.9867 49.2896 71.1812 48.6861 71.3676 48.1353C72.9542 50.2699 74.7564 50.9875 76.8685 50.346C78.8065 49.7574 80.0185 47.8765 80.0323 45.42C80.0394 44.1508 80.0709 42.88 80.0227 41.6125C79.9327 39.2482 78.4413 37.3795 76.261 37.0158C73.7762 36.6012 72.209 37.9465 71.0411 39.8284C70.9062 36.3715 71.0813 33.0181 70.6335 29.7503C69.3156 20.1337 60.7032 13.2088 50.6522 14.367C41.3049 15.4441 34.5977 23.339 34.5811 32.7925C34.5769 35.1869 34.5197 37.5811 34.4206 39.9C32.9139 37.436 31.0737 36.5058 28.9647 37.1002C26.7293 37.7304 25.5358 39.5128 25.525 42.248C25.5201 43.4682 25.4879 44.6899 25.5353 45.9083C25.6095 47.8146 26.4672 49.2733 28.1984 50.1335C30.2616 51.1585 32.3684 50.4312 34.358 48.1703C34.4913 48.8376 34.5788 49.4172 34.5792 49.9969C34.5874 60.9637 34.569 71.9305 34.6061 82.8971C34.6107 84.25 34.758 85.6368 35.0807 86.9483C36.7222 93.6186 40.7421 98.1604 47.2971 100.388C47.7964 100.557 48.2146 100.966 48.6704 101.264C40.0561 101.264 31.4417 101.264 22.6899 101.264C22.4215 101.073 22.3206 100.749 22.1556 100.712C13.6788 98.8177 7.42928 93.9403 3.41901 86.3158C0.795206 81.3272 0.0104192 75.9491 0.791275 70.3015C1.6801 63.8731 4.44324 58.4984 9.1099 54.0354C11.3356 51.9068 13.5012 49.7127 15.6271 47.4841C16.0402 47.0511 16.3383 46.3277 16.3566 45.728C16.4461 42.7946 16.423 39.8577 16.5542 36.7467C16.7682 36.3605 16.9244 36.1585 16.959 35.9374C18.4637 26.3131 23.1232 18.567 30.8029 12.622C32.1452 11.5829 33.5233 10.5903 34.8849 9.57627C38.4705 7.70809 42.2225 6.2321 46.2074 5.58452C50.1466 4.94436 54.123 4.9242 58.1177 5.44939C62.4593 6.02018 66.4627 7.49517 70.3405 9.42153C70.5076 9.50451 70.6274 9.68285 70.9245 9.92455C73.2573 11.6653 75.6092 13.1123 77.5794 14.966C83.499 20.5358 87.2543 27.3453 88.6086 35.4219C88.6479 35.6561 88.9238 35.8506 89.0894 36.0637Z" fill="#C75B31"/>
<path d="M71.2857 48.0825C71.1812 48.6861 70.9868 49.2896 70.9857 49.8934C70.9672 60.5424 70.8432 71.1936 71.0131 81.84C71.1497 90.3957 66.1873 98.0046 57.8961 100.495C57.5483 100.6 57.2489 100.866 56.9071 101.16C54.2401 101.264 51.5928 101.264 48.808 101.264C48.2146 100.966 47.7964 100.557 47.2971 100.388C40.7421 98.1604 36.7223 93.6186 35.0808 86.9483C34.758 85.6368 34.6107 84.25 34.6061 82.8971C34.569 71.9305 34.5874 60.9637 34.5792 49.9969C34.5788 49.4172 34.4913 48.8376 34.3816 48.0495C34.375 45.2192 34.4309 42.5973 34.4869 39.9754C34.5197 37.5811 34.5769 35.1869 34.5811 32.7925C34.5977 23.339 41.3049 15.4441 50.6522 14.367C60.7032 13.2088 69.3156 20.1337 70.6335 29.7503C71.0813 33.0181 70.9062 36.3715 71.0234 39.9559C71.1159 42.8449 71.2008 45.4637 71.2857 48.0825ZM53.0209 92.1519C57.371 91.979 60.8912 89.0922 61.6121 84.8032C61.9479 82.806 61.814 80.7268 61.8565 78.684C61.8886 77.1429 61.8629 75.6005 61.8629 74.0441C57.4471 73.7883 54.7508 71.4869 53.1031 67.5631C53.0695 67.4403 53.0358 67.3175 53.0184 66.9977C52.9156 66.8771 52.8128 66.7565 52.7099 66.6358C52.6477 66.8198 52.5854 67.0038 52.4559 67.3918C51.0679 71.5591 48.1042 73.7166 43.6958 74.0907C43.6958 74.6139 43.694 75.046 43.696 75.478C43.7095 78.3169 43.542 81.1711 43.7787 83.9913C44.1748 88.7112 48.192 92.2152 53.0209 92.1519ZM61.1592 52.8357C60.2304 51.2582 58.756 50.5455 57.0219 50.4951C54.1956 50.4129 51.3612 50.3828 48.5375 50.5023C46.3976 50.5928 44.7151 51.5554 43.9748 53.7536C43.2534 55.8958 43.9812 57.5652 45.6013 58.961C46.1914 59.4694 46.7931 59.9645 47.3942 60.46C49.1849 61.9358 50.9778 63.4089 52.8283 64.9311C55.3352 62.8281 57.768 60.8807 60.091 58.8099C62.0702 57.0456 62.3011 55.5581 61.1592 52.8357Z" fill="#E76C38"/>
<path d="M80.7881 101.263C80.8373 101.061 80.9788 100.749 81.202 100.671C87.7746 98.3599 91.1506 93.1506 93.5574 87.0586C95.5292 82.0675 96.0894 76.8395 95.8865 71.5424C95.605 64.1964 93.851 57.1818 90.6901 50.528C90.2116 49.521 89.8746 48.4465 89.4731 47.2899C93.398 51.1464 97.8456 54.6502 100.882 59.4183C102.935 62.6419 104.218 66.1885 104.759 70.0364C105.515 75.4102 104.862 80.5637 102.589 85.4362C100.136 90.6932 96.3967 94.9348 91.2511 97.6722C88.6247 99.0694 85.7133 99.9294 82.968 101.148C82.3098 101.263 81.6141 101.263 80.7881 101.263Z" fill="#B6502F"/>
<path d="M34.8751 9.46152C33.5233 10.5903 32.1452 11.5829 30.8029 12.622C23.1232 18.567 18.4638 26.3131 16.959 35.9374C16.9244 36.1585 16.7682 36.3605 16.568 36.6112C16.4413 31.561 16.4084 26.471 16.3919 21.3809C16.3799 17.6597 16.4093 13.9383 16.3841 10.2172C16.3587 6.45526 18.0226 3.66923 21.2792 1.90342C24.5742 0.116759 27.8074 0.56179 30.8954 2.53383C33.0371 3.9015 34.0924 5.96307 34.5903 8.37786C34.6579 8.70581 34.7725 9.02405 34.8751 9.46152Z" fill="#9C3C25"/>
<path d="M89.1186 35.927C88.9238 35.8506 88.6479 35.6561 88.6086 35.4218C87.2543 27.3453 83.499 20.5358 77.5794 14.966C75.6092 13.1123 73.2573 11.6653 71.0225 9.95078C70.789 5.12988 74.492 1.20488 79.5147 0.838146C83.8783 0.519535 87.8755 3.30647 89.1104 8.07714C89.1823 8.35467 89.1659 8.65894 89.1657 8.95074C89.1616 17.8973 89.1544 26.8438 89.1186 35.927Z" fill="#9C3C25"/>
<path d="M34.4206 39.8999C34.4309 42.5972 34.375 45.2191 34.2953 47.9617C32.3685 50.4311 30.2616 51.1584 28.1985 50.1334C26.4672 49.2732 25.6095 47.8145 25.5354 45.9082C25.488 44.6898 25.5202 43.4681 25.525 42.2479C25.5358 39.5127 26.7293 37.7303 28.9647 37.1002C31.0737 36.5057 32.9139 37.4359 34.4206 39.8999Z" fill="#373535"/>
<path d="M71.3676 48.1353C71.2008 45.4637 71.1159 42.8449 71.0488 40.0986C72.209 37.9465 73.7762 36.6013 76.261 37.0158C78.4414 37.3795 79.9327 39.2482 80.0227 41.6125C80.071 42.88 80.0394 44.1508 80.0323 45.42C80.0185 47.8765 78.8065 49.7574 76.8686 50.346C74.7564 50.9876 72.9542 50.2699 71.3676 48.1353Z" fill="#373635"/>
<path d="M61.2154 52.9337C62.3011 55.5581 62.0703 57.0457 60.091 58.8099C57.768 60.8807 55.3352 62.8281 52.8283 64.9312C50.9778 63.4089 49.1849 61.9359 47.3942 60.46C46.7931 59.9645 46.1914 59.4695 45.6013 58.9611C43.9812 57.5652 43.2534 55.8959 43.9748 53.7536C44.7151 51.5555 46.3976 50.5928 48.5375 50.5023C51.3613 50.3828 54.1956 50.4129 57.0219 50.4951C58.756 50.5456 60.2305 51.2582 61.2154 52.9337Z" fill="#9D3D25"/>
<path d="M53.0022 67.1945C53.0358 67.3174 53.0695 67.4402 53.0185 67.7462C52.8825 68.5073 52.7872 69.0852 52.7863 69.6631C52.7739 77.1472 52.775 84.6313 52.7727 92.1154C48.192 92.2151 44.1748 88.7111 43.7787 83.9912C43.542 81.171 43.7095 78.3168 43.696 75.4779C43.694 75.0459 43.6958 74.6138 43.6958 74.0906C48.1042 73.7165 51.0679 71.559 52.5693 67.2901C52.7893 67.1905 52.8957 67.1925 53.0022 67.1945Z" fill="#FFFEFE"/>
<path d="M52.8968 92.1337C52.775 84.6314 52.7739 77.1473 52.7863 69.6632C52.7872 69.0853 52.8825 68.5074 53.0226 67.842C54.7507 71.4869 57.4471 73.7883 61.8629 74.0441C61.8629 75.6005 61.8886 77.1429 61.8565 78.684C61.8139 80.7268 61.9478 82.806 61.6121 84.8032C60.8911 89.0922 57.371 91.9791 52.8968 92.1337Z" fill="#FFF3E2"/>
<path d="M53.0103 67.0961C52.8957 67.1925 52.7893 67.1905 52.6029 67.188C52.5854 67.0037 52.6476 66.8197 52.7099 66.6357C52.8128 66.7564 52.9156 66.877 53.0103 67.0961Z" fill="#FFF3E2"/>
<path d="M34.8751 9.46152C33.5233 10.5903 32.1452 11.5829 30.8029 12.622C23.1232 18.567 18.4638 26.3131 16.959 35.9374C16.9244 36.1585 16.7682 36.3605 16.568 36.6112C16.4413 31.561 16.4084 26.471 16.3919 21.3809C16.3799 17.6597 16.4093 13.9383 16.3841 10.2172C16.3587 6.45526 18.0226 3.66923 21.2792 1.90342C24.5742 0.116759 27.8074 0.56179 30.8954 2.53383C33.0371 3.9015 34.0924 5.96307 34.5903 8.37786C34.6579 8.70581 34.7725 9.02405 34.8751 9.46152Z" fill="#9C3C25"/>
<path d="M89.1186 35.927C88.9238 35.8506 88.6479 35.6561 88.6086 35.4218C87.2543 27.3453 83.499 20.5358 77.5794 14.966C75.6092 13.1123 73.2573 11.6653 71.0225 9.95078C70.789 5.12988 74.492 1.20488 79.5147 0.838146C83.8783 0.519535 87.8755 3.30647 89.1104 8.07714C89.1823 8.35467 89.1659 8.65894 89.1657 8.95074C89.1616 17.8973 89.1544 26.8438 89.1186 35.927Z" fill="#9C3C25"/>
<path d="M89.0894 36.0637C89.1157 39.1778 89.1339 42.2919 89.176 45.4058C89.1831 45.9247 89.2939 46.4421 89.4144 47.1818C89.8746 48.4466 90.2117 49.521 90.6901 50.5281C93.851 57.1819 95.605 64.1964 95.8865 71.5424C96.0895 76.8396 95.5292 82.0676 93.5574 87.0587C91.1506 93.1507 87.7746 98.36 81.202 100.671C80.9788 100.749 80.8373 101.061 80.6578 101.264C72.826 101.264 64.9942 101.264 57.0446 101.16C57.2488 100.866 57.5483 100.6 57.8961 100.495C66.1873 98.0046 71.1497 90.3957 71.0131 81.84C70.8431 71.1936 70.9672 60.5424 70.9857 49.8934C70.9867 49.2896 71.1812 48.6861 71.3676 48.1353C72.9542 50.2699 74.7564 50.9875 76.8685 50.346C78.8065 49.7574 80.0185 47.8765 80.0323 45.42C80.0394 44.1508 80.0709 42.88 80.0227 41.6125C79.9327 39.2482 78.4413 37.3795 76.261 37.0158C73.7762 36.6012 72.209 37.9465 71.0411 39.8284C70.9062 36.3715 71.0813 33.0181 70.6335 29.7503C69.3156 20.1337 60.7032 13.2088 50.6522 14.367C41.3049 15.4441 34.5977 23.339 34.5811 32.7925C34.5769 35.1869 34.5197 37.5811 34.4206 39.9C32.9139 37.436 31.0737 36.5058 28.9647 37.1002C26.7293 37.7304 25.5358 39.5128 25.525 42.248C25.5201 43.4682 25.4879 44.6899 25.5353 45.9083C25.6095 47.8146 26.4672 49.2733 28.1984 50.1335C30.2616 51.1585 32.3684 50.4312 34.358 48.1703C34.4913 48.8376 34.5788 49.4172 34.5792 49.9969C34.5874 60.9637 34.569 71.9305 34.6061 82.8971C34.6107 84.25 34.758 85.6368 35.0807 86.9483C36.7222 93.6186 40.7421 98.1604 47.2971 100.388C47.7964 100.557 48.2146 100.966 48.6704 101.264C40.0561 101.264 31.4417 101.264 22.6899 101.264C22.4215 101.073 22.3206 100.749 22.1556 100.712C13.6788 98.8177 7.42928 93.9403 3.41901 86.3158C0.795206 81.3272 0.0104192 75.9491 0.791275 70.3015C1.6801 63.8731 4.44324 58.4984 9.1099 54.0354C11.3356 51.9068 13.5012 49.7127 15.6271 47.4841C16.0402 47.0511 16.3383 46.3277 16.3566 45.728C16.4461 42.7946 16.423 39.8577 16.5542 36.7467C16.7682 36.3605 16.9244 36.1585 16.959 35.9374C18.4637 26.3131 23.1232 18.567 30.8029 12.622C32.1452 11.5829 33.5233 10.5903 34.8849 9.57627C38.4705 7.70809 42.2225 6.2321 46.2074 5.58452C50.1466 4.94436 54.123 4.9242 58.1177 5.44939C62.4593 6.02018 66.4627 7.49517 70.3405 9.42153C70.5076 9.50451 70.6274 9.68285 70.9245 9.92455C73.2573 11.6653 75.6092 13.1123 77.5794 14.966C83.499 20.5358 87.2543 27.3453 88.6086 35.4219C88.6479 35.6561 88.9238 35.8506 89.0894 36.0637Z" fill="#C75B31"/>
<path d="M71.2857 48.0825C71.1812 48.6861 70.9868 49.2896 70.9857 49.8934C70.9672 60.5424 70.8432 71.1936 71.0131 81.84C71.1497 90.3957 66.1873 98.0046 57.8961 100.495C57.5483 100.6 57.2489 100.866 56.9071 101.16C54.2401 101.264 51.5928 101.264 48.808 101.264C48.2146 100.966 47.7964 100.557 47.2971 100.388C40.7421 98.1604 36.7223 93.6186 35.0808 86.9483C34.758 85.6368 34.6107 84.25 34.6061 82.8971C34.569 71.9305 34.5874 60.9637 34.5792 49.9969C34.5788 49.4172 34.4913 48.8376 34.3816 48.0495C34.375 45.2192 34.4309 42.5973 34.4869 39.9754C34.5197 37.5811 34.5769 35.1869 34.5811 32.7925C34.5977 23.339 41.3049 15.4441 50.6522 14.367C60.7032 13.2088 69.3156 20.1337 70.6335 29.7503C71.0813 33.0181 70.9062 36.3715 71.0234 39.9559C71.1159 42.8449 71.2008 45.4637 71.2857 48.0825ZM53.0209 92.1519C57.371 91.979 60.8912 89.0922 61.6121 84.8032C61.9479 82.806 61.814 80.7268 61.8565 78.684C61.8886 77.1429 61.8629 75.6005 61.8629 74.0441C57.4471 73.7883 54.7508 71.4869 53.1031 67.5631C53.0695 67.4403 53.0358 67.3175 53.0184 66.9977C52.9156 66.8771 52.8128 66.7565 52.7099 66.6358C52.6477 66.8198 52.5854 67.0038 52.4559 67.3918C51.0679 71.5591 48.1042 73.7166 43.6958 74.0907C43.6958 74.6139 43.694 75.046 43.696 75.478C43.7095 78.3169 43.542 81.1711 43.7787 83.9913C44.1748 88.7112 48.192 92.2152 53.0209 92.1519ZM61.1592 52.8357C60.2304 51.2582 58.756 50.5455 57.0219 50.4951C54.1956 50.4129 51.3612 50.3828 48.5375 50.5023C46.3976 50.5928 44.7151 51.5554 43.9748 53.7536C43.2534 55.8958 43.9812 57.5652 45.6013 58.961C46.1914 59.4694 46.7931 59.9645 47.3942 60.46C49.1849 61.9358 50.9778 63.4089 52.8283 64.9311C55.3352 62.8281 57.768 60.8807 60.091 58.8099C62.0702 57.0456 62.3011 55.5581 61.1592 52.8357Z" fill="#E76C38"/>
<path d="M34.4206 39.8999C34.4309 42.5972 34.375 45.2191 34.2953 47.9617C32.3685 50.4311 30.2616 51.1584 28.1985 50.1334C26.4672 49.2732 25.6095 47.8145 25.5354 45.9082C25.488 44.6898 25.5202 43.4681 25.525 42.2479C25.5358 39.5127 26.7293 37.7303 28.9647 37.1002C31.0737 36.5057 32.9139 37.4359 34.4206 39.8999Z" fill="#373535"/>
<path d="M71.3676 48.1353C71.2008 45.4637 71.1159 42.8449 71.0488 40.0986C72.209 37.9465 73.7762 36.6013 76.261 37.0158C78.4414 37.3795 79.9327 39.2482 80.0227 41.6125C80.071 42.88 80.0394 44.1508 80.0323 45.42C80.0185 47.8765 78.8065 49.7574 76.8686 50.346C74.7564 50.9876 72.9542 50.2699 71.3676 48.1353Z" fill="#373635"/>
<path d="M80.7881 101.263C80.8373 101.061 80.9788 100.749 81.202 100.671C87.7746 98.3599 91.1506 93.1506 93.5574 87.0586C95.5292 82.0675 96.0894 76.8395 95.8865 71.5424C95.605 64.1964 93.851 57.1818 90.6901 50.528C90.2116 49.521 89.8746 48.4465 89.4731 47.2899C93.398 51.1464 97.8456 54.6502 100.882 59.4183C102.935 62.6419 104.218 66.1885 104.759 70.0364C105.515 75.4102 104.862 80.5637 102.589 85.4362C100.136 90.6932 96.3967 94.9348 91.2511 97.6722C88.6247 99.0694 85.7133 99.9294 82.968 101.148C82.3098 101.263 81.6141 101.263 80.7881 101.263Z" fill="#B6502F"/>
<path d="M61.2154 52.9337C62.3011 55.5581 62.0703 57.0457 60.091 58.8099C57.768 60.8807 55.3352 62.8281 52.8283 64.9312C50.9778 63.4089 49.1849 61.9359 47.3942 60.46C46.7931 59.9645 46.1914 59.4695 45.6013 58.9611C43.9812 57.5652 43.2534 55.8959 43.9748 53.7536C44.7151 51.5555 46.3976 50.5928 48.5375 50.5023C51.3613 50.3828 54.1956 50.4129 57.0219 50.4951C58.756 50.5456 60.2305 51.2582 61.2154 52.9337Z" fill="#9D3D25"/>
<path d="M53.0103 67.0961C52.8957 67.1925 52.7893 67.1905 52.6029 67.188C52.5854 67.0037 52.6476 66.8197 52.7099 66.6357C52.8128 66.7564 52.9156 66.877 53.0103 67.0961Z" fill="#FFF3E2"/>
<path d="M53.0022 67.1945C53.0358 67.3174 53.0695 67.4402 53.0185 67.7462C52.8825 68.5073 52.7872 69.0852 52.7863 69.6631C52.7739 77.1472 52.775 84.6313 52.7727 92.1154C48.192 92.2151 44.1748 88.7111 43.7787 83.9912C43.542 81.171 43.7095 78.3168 43.696 75.4779C43.694 75.0459 43.6958 74.6138 43.6958 74.0906C48.1042 73.7165 51.0679 71.559 52.5693 67.2901C52.7893 67.1905 52.8957 67.1925 53.0022 67.1945Z" fill="#FFFEFE"/>
<path d="M52.8968 92.1337C52.775 84.6314 52.7739 77.1473 52.7863 69.6632C52.7872 69.0853 52.8825 68.5074 53.0226 67.842C54.7507 71.4869 57.4471 73.7883 61.8629 74.0441C61.8629 75.6005 61.8886 77.1429 61.8565 78.684C61.8139 80.7268 61.9478 82.806 61.6121 84.8032C60.8911 89.0922 57.371 91.9791 52.8968 92.1337Z" fill="#FFF3E2"/>
</g>
<defs>
<clipPath id="clip0_5_32">
<rect width="106" height="102" fill="white"/>
</clipPath>
</defs>
</svg>
